<svg width="1837" height="1620" xmlns="http://www.w3.org/2000/svg" xmlns:xlink="http://www.w3.org/1999/xlink" xml:space="preserve" overflow="hidden"><defs><clipPath id="clip0"><rect x="4259" y="5232" width="1837" height="1620"/></clipPath></defs><g clip-path="url(#clip0)" transform="translate(-4259 -5232)"><rect x="4260" y="5233" width="1834" height="1617" fill="#FFFFFF"/><g><path d="M5177.48 5403.08C5534.25 5403.08 5823.47 5692.3 5823.47 6049.08 5823.47 6405.85 5534.25 6695.07 5177.48 6695.07 4893.69 6695.07 4643.14 6509.86 4559.9 6238.55L5177.48 6049.08Z" stroke="#FFFFFF" stroke-width="6.875" stroke-linejoin="round" stroke-miterlimit="10" fill="#3B7D23" fill-rule="evenodd"/></g><g><path d="M4559.9 6238.55C4536.76 6163.14 4527.63 6084.12 4532.97 6005.41L5177.48 6049.08Z" stroke="#FFFFFF" stroke-width="6.875" stroke-linejoin="round" stroke-miterlimit="10" fill="#7030A0" fill-rule="evenodd"/></g><g><path d="M4532.97 6005.41C4533.91 5991.54 4535.29 5977.7 4537.13 5963.91L5177.48 6049.08Z" stroke="#FFFFFF" stroke-width="6.875" stroke-linejoin="round" stroke-miterlimit="10" fill="#C04F15" fill-rule="evenodd"/></g><g><path d="M4537.13 5963.91C4573.86 5687.72 4783.54 5466.2 5057.29 5414.36L5177.48 6049.08Z" stroke="#FFFFFF" stroke-width="6.875" stroke-linejoin="round" stroke-miterlimit="10" fill="#FFC000" fill-rule="evenodd"/></g><g><path d="M5057.29 5414.36C5088.93 5408.37 5120.97 5404.76 5153.15 5403.54L5177.48 6049.08Z" stroke="#FFFFFF" stroke-width="6.875" stroke-linejoin="round" stroke-miterlimit="10" fill="#E59EDD" fill-rule="evenodd"/></g><g><path d="M5153.15 5403.54C5161.26 5403.24 5169.37 5403.08 5177.48 5403.08L5177.48 6049.08Z" stroke="#FFFFFF" stroke-width="6.875" stroke-linejoin="round" stroke-miterlimit="10" fill="#095F80" fill-rule="evenodd"/></g><g><text fill="#595959" font-family="Aptos Narrow,Aptos Narrow_MSFontService,sans-serif" font-weight="400" font-stretch="semi-condensed" font-size="64" transform="matrix(1 0 0 1 4711.7 5327)">Distribución de la potencia isntalada</text></g><g><rect x="4632.5" y="6772.5" width="23" height="23" stroke="#FFFFFF" stroke-width="6.875" stroke-linejoin="round" stroke-miterlimit="10" fill="#3B7D23"/></g><g><text fill="#595959" font-family="Aptos Narrow,Aptos Narrow_MSFontService,sans-serif" font-weight="400" font-stretch="semi-condensed" font-size="41" transform="matrix(1 0 0 1 4665.18 6796)">Reonovable</text></g><g><rect x="4900.5" y="6772.5" width="22" height="23" stroke="#FFFFFF" stroke-width="6.875" stroke-linejoin="round" stroke-miterlimit="10" fill="#7030A0"/></g><g><text fill="#595959" font-family="Aptos Narrow,Aptos Narrow_MSFontService,sans-serif" font-weight="400" font-stretch="semi-condensed" font-size="41" transform="matrix(1 0 0 1 4932.35 6796)">Nuclear</text></g><g><rect x="5103.5" y="6772.5" width="22.9995" height="23" stroke="#FFFFFF" stroke-width="6.875" stroke-linejoin="round" stroke-miterlimit="10" fill="#C04F15"/></g><g><text fill="#595959" font-family="Aptos Narrow,Aptos Narrow_MSFontService,sans-serif" font-weight="400" font-stretch="semi-condensed" font-size="41" transform="matrix(1 0 0 1 5135.92 6796)">Carbón</text></g><g><rect x="5298.5" y="6772.5" width="23" height="23" stroke="#FFFFFF" stroke-width="6.875" stroke-linejoin="round" stroke-miterlimit="10" fill="#FFC000"/></g><g><text fill="#595959" font-family="Aptos Narrow,Aptos Narrow_MSFontService,sans-serif" font-weight="400" font-stretch="semi-condensed" font-size="41" transform="matrix(1 0 0 1 5331.07 6796)">CC</text></g><g><rect x="5424.5" y="6772.5" width="22" height="23" stroke="#FFFFFF" stroke-width="6.875" stroke-linejoin="round" stroke-miterlimit="10" fill="#E59EDD"/></g><g><text fill="#595959" font-family="Aptos Narrow,Aptos Narrow_MSFontService,sans-serif" font-weight="400" font-stretch="semi-condensed" font-size="41" transform="matrix(1 0 0 1 5456.55 6796)">Cogen.</text></g><g><rect x="5614.5" y="6772.5" width="23" height="23" stroke="#FFFFFF" stroke-width="6.875" stroke-linejoin="round" stroke-miterlimit="10" fill="#095F80"/></g><g><text fill="#595959" font-family="Aptos Narrow,Aptos Narrow_MSFontService,sans-serif" font-weight="400" font-stretch="semi-condensed" font-size="41" transform="matrix(1 0 0 1 5646.96 6796)">Otros</text></g><rect x="4260.5" y="5233.5" width="1834" height="1617" stroke="#D9D9D9" stroke-width="3.4375" stroke-linejoin="round" stroke-miterlimit="10" fill="none"/></g></svg>